<svg xmlns="http://www.w3.org/2000/svg" width="35.059" height="32.382" viewBox="0 0 35.059 32.382">
  <g id="Icon_ionic-ios-cart" data-name="Icon ionic-ios-cart" transform="translate(-3.382 -4.493)">
    <path id="Path_47017" data-name="Path 47017" d="M13.609,30.148a2.023,2.023,0,1,1-2.023-2.023,2.023,2.023,0,0,1,2.023,2.023Z" transform="translate(1.23 4.703)" fill="#087ac0"/>
    <path id="Path_47018" data-name="Path 47018" d="M29.394,30.148a2.023,2.023,0,1,1-2.023-2.023,2.023,2.023,0,0,1,2.023,2.023Z" transform="translate(4.371 4.703)" fill="#087ac0"/>
    <path id="Path_47019" data-name="Path 47019" d="M38.428,10.251a.5.5,0,0,0-.438-.354L10.531,7.241a.845.845,0,0,1-.632-.4A8.585,8.585,0,0,0,8.87,5.277C8.221,4.485,7,4.51,4.756,4.493A1.228,1.228,0,0,0,3.382,5.682,1.205,1.205,0,0,0,4.7,6.87a11.2,11.2,0,0,1,2.192.16c.4.118.717.767.835,1.332a.031.031,0,0,0,.008.025c.017.1.169.86.169.868L11.273,27.1A6.556,6.556,0,0,0,12.5,30.1a3.364,3.364,0,0,0,2.774,1.366H35.216a1.2,1.2,0,0,0,1.214-1.13,1.175,1.175,0,0,0-1.18-1.231h-20a.98.98,0,0,1-.7-.236,3.783,3.783,0,0,1-.97-2.192l-.363-2a.046.046,0,0,1,.034-.051l23.411-3.962a.493.493,0,0,0,.413-.438l1.349-9.763A.481.481,0,0,0,38.428,10.251Z" transform="translate(0 0)" fill="#087ac0"/>
  </g>
</svg>
