<svg xmlns="http://www.w3.org/2000/svg" width="29.237" height="58.5" viewBox="0 0 29.237 58.5">
  <path id="Icon_ionic-ios-phone-portrait" data-name="Icon ionic-ios-phone-portrait" d="M35.157,2.25H14.447a4.3,4.3,0,0,0-4.322,4.3V56.3a4.424,4.424,0,0,0,4.322,4.453h20.7A4.337,4.337,0,0,0,39.362,56.3V6.546A4.19,4.19,0,0,0,35.157,2.25Zm-12.366,3h3.917a.522.522,0,0,1,0,1.045H22.791a.522.522,0,1,1,0-1.045Zm2.024,53.538a2.272,2.272,0,1,1,2.272-2.272A2.274,2.274,0,0,1,24.815,58.791Zm12.209-6.4H12.475a.262.262,0,0,1-.261-.261V9.171a.262.262,0,0,1,.261-.261H37.025a.262.262,0,0,1,.261.261V52.132A.262.262,0,0,1,37.025,52.393Z" transform="translate(-10.125 -2.25)" fill="#087ac0"/>
</svg>
